<mxfile host="app.diagrams.net" modified="2023-08-02T04:40:12.894Z" agent="Mozilla/5.0 (Windows NT 10.0; Win64; x64) AppleWebKit/537.36 (KHTML, like Gecko) Chrome/115.0.0.0 Safari/537.36" etag="idUqal7mCqK7oNYSmGMa" version="21.6.6" type="github">
  <diagram name="Page-1" id="9c096ad6-e400-ecc8-3e38-643d2caac077">
    <mxGraphModel dx="2607" dy="1364" grid="1" gridSize="10" guides="1" tooltips="1" connect="1" arrows="1" fold="1" page="1" pageScale="1.5" pageWidth="1169" pageHeight="826" background="none" math="0" shadow="0">
      <root>
        <mxCell id="0" style=";html=1;" />
        <mxCell id="1" style=";html=1;" parent="0" />
        <mxCell id="3cfceab9cabfe5b9-59" value="" style="line;strokeWidth=1;html=1;rounded=1;fontSize=12;align=center;verticalAlign=middle;strokeColor=#FF0000;endFill=1;endArrow=classic;endSize=10;startSize=10;" parent="1" vertex="1">
          <mxGeometry x="87" y="1105" width="68" height="10" as="geometry" />
        </mxCell>
        <mxCell id="e3i8lb2qf0uO69dVtqz0-3" style="edgeStyle=orthogonalEdgeStyle;rounded=0;orthogonalLoop=1;jettySize=auto;html=1;" edge="1" parent="1" source="e3i8lb2qf0uO69dVtqz0-1">
          <mxGeometry relative="1" as="geometry">
            <mxPoint x="395" y="240" as="targetPoint" />
          </mxGeometry>
        </mxCell>
        <mxCell id="e3i8lb2qf0uO69dVtqz0-1" value="Alberts centralized SQL db" style="shape=cylinder3;whiteSpace=wrap;html=1;boundedLbl=1;backgroundOutline=1;size=15;" vertex="1" parent="1">
          <mxGeometry x="310" y="30" width="170" height="90" as="geometry" />
        </mxCell>
        <mxCell id="e3i8lb2qf0uO69dVtqz0-8" style="edgeStyle=orthogonalEdgeStyle;rounded=0;orthogonalLoop=1;jettySize=auto;html=1;" edge="1" parent="1" source="e3i8lb2qf0uO69dVtqz0-4">
          <mxGeometry relative="1" as="geometry">
            <mxPoint x="230" y="630" as="targetPoint" />
          </mxGeometry>
        </mxCell>
        <mxCell id="e3i8lb2qf0uO69dVtqz0-13" style="edgeStyle=orthogonalEdgeStyle;rounded=0;orthogonalLoop=1;jettySize=auto;html=1;entryX=0.5;entryY=0;entryDx=0;entryDy=0;entryPerimeter=0;" edge="1" parent="1" source="e3i8lb2qf0uO69dVtqz0-4" target="e3i8lb2qf0uO69dVtqz0-12">
          <mxGeometry relative="1" as="geometry" />
        </mxCell>
        <mxCell id="e3i8lb2qf0uO69dVtqz0-17" style="edgeStyle=orthogonalEdgeStyle;rounded=0;orthogonalLoop=1;jettySize=auto;html=1;" edge="1" parent="1">
          <mxGeometry relative="1" as="geometry">
            <mxPoint x="745" y="190" as="targetPoint" />
            <mxPoint x="490" y="281" as="sourcePoint" />
          </mxGeometry>
        </mxCell>
        <mxCell id="e3i8lb2qf0uO69dVtqz0-4" value="Outsystems Environment" style="swimlane;whiteSpace=wrap;html=1;" vertex="1" parent="1">
          <mxGeometry x="290" y="240" width="205" height="250" as="geometry" />
        </mxCell>
        <mxCell id="e3i8lb2qf0uO69dVtqz0-5" value="Outsytems Entities" style="whiteSpace=wrap;html=1;" vertex="1" parent="e3i8lb2qf0uO69dVtqz0-4">
          <mxGeometry x="50" y="30" width="100" height="40" as="geometry" />
        </mxCell>
        <mxCell id="e3i8lb2qf0uO69dVtqz0-6" value="Server Logic" style="ellipse;whiteSpace=wrap;html=1;" vertex="1" parent="e3i8lb2qf0uO69dVtqz0-4">
          <mxGeometry x="55" y="90" width="90" height="60" as="geometry" />
        </mxCell>
        <mxCell id="e3i8lb2qf0uO69dVtqz0-7" value="UI" style="rounded=1;whiteSpace=wrap;html=1;" vertex="1" parent="e3i8lb2qf0uO69dVtqz0-4">
          <mxGeometry x="60" y="170" width="80" height="50" as="geometry" />
        </mxCell>
        <mxCell id="e3i8lb2qf0uO69dVtqz0-9" value="Public customer-facing website" style="shape=umlActor;verticalLabelPosition=bottom;verticalAlign=top;html=1;outlineConnect=0;" vertex="1" parent="1">
          <mxGeometry x="210" y="630" width="30" height="60" as="geometry" />
        </mxCell>
        <mxCell id="e3i8lb2qf0uO69dVtqz0-12" value="Albert internal web portal" style="shape=umlActor;verticalLabelPosition=bottom;verticalAlign=top;html=1;outlineConnect=0;" vertex="1" parent="1">
          <mxGeometry x="560" y="620" width="30" height="60" as="geometry" />
        </mxCell>
        <mxCell id="e3i8lb2qf0uO69dVtqz0-16" style="edgeStyle=orthogonalEdgeStyle;rounded=0;orthogonalLoop=1;jettySize=auto;html=1;entryX=0.5;entryY=0;entryDx=0;entryDy=0;" edge="1" parent="1" source="e3i8lb2qf0uO69dVtqz0-14" target="e3i8lb2qf0uO69dVtqz0-15">
          <mxGeometry relative="1" as="geometry" />
        </mxCell>
        <mxCell id="e3i8lb2qf0uO69dVtqz0-14" value="Alberts centralized SQL db" style="shape=cylinder3;whiteSpace=wrap;html=1;boundedLbl=1;backgroundOutline=1;size=15;" vertex="1" parent="1">
          <mxGeometry x="1190" y="30" width="170" height="90" as="geometry" />
        </mxCell>
        <mxCell id="e3i8lb2qf0uO69dVtqz0-15" value=".NET 7 Web APIs" style="rounded=1;whiteSpace=wrap;html=1;" vertex="1" parent="1">
          <mxGeometry x="1180" y="260" width="190" height="100" as="geometry" />
        </mxCell>
        <mxCell id="e3i8lb2qf0uO69dVtqz0-18" value="Custom Albert Logic wrapped as Outystems extension" style="rhombus;whiteSpace=wrap;html=1;" vertex="1" parent="1">
          <mxGeometry x="560" y="10" width="380" height="180" as="geometry" />
        </mxCell>
        <mxCell id="e3i8lb2qf0uO69dVtqz0-19" value="re-usable VB.NET/C# Logic" style="text;html=1;strokeColor=none;fillColor=none;align=center;verticalAlign=middle;whiteSpace=wrap;rounded=0;" vertex="1" parent="1">
          <mxGeometry x="700" y="130" width="100" height="30" as="geometry" />
        </mxCell>
        <mxCell id="e3i8lb2qf0uO69dVtqz0-20" value="Public FE website" style="rounded=1;whiteSpace=wrap;html=1;" vertex="1" parent="1">
          <mxGeometry x="1020" y="520" width="140" height="90" as="geometry" />
        </mxCell>
        <mxCell id="e3i8lb2qf0uO69dVtqz0-21" value="Albert Internal FE website" style="rounded=1;whiteSpace=wrap;html=1;" vertex="1" parent="1">
          <mxGeometry x="1380" y="520" width="140" height="85" as="geometry" />
        </mxCell>
        <mxCell id="e3i8lb2qf0uO69dVtqz0-24" value="" style="endArrow=classic;html=1;rounded=0;exitX=0.75;exitY=0;exitDx=0;exitDy=0;entryX=0.25;entryY=1;entryDx=0;entryDy=0;" edge="1" parent="1" source="e3i8lb2qf0uO69dVtqz0-20" target="e3i8lb2qf0uO69dVtqz0-15">
          <mxGeometry width="50" height="50" relative="1" as="geometry">
            <mxPoint x="980" y="340" as="sourcePoint" />
            <mxPoint x="1030" y="290" as="targetPoint" />
            <Array as="points" />
          </mxGeometry>
        </mxCell>
        <mxCell id="e3i8lb2qf0uO69dVtqz0-25" value="" style="endArrow=classic;html=1;rounded=0;exitX=0.25;exitY=0;exitDx=0;exitDy=0;entryX=0.653;entryY=1.02;entryDx=0;entryDy=0;entryPerimeter=0;" edge="1" parent="1" source="e3i8lb2qf0uO69dVtqz0-21" target="e3i8lb2qf0uO69dVtqz0-15">
          <mxGeometry width="50" height="50" relative="1" as="geometry">
            <mxPoint x="1370" y="470" as="sourcePoint" />
            <mxPoint x="1420" y="420" as="targetPoint" />
          </mxGeometry>
        </mxCell>
        <mxCell id="e3i8lb2qf0uO69dVtqz0-28" style="edgeStyle=orthogonalEdgeStyle;rounded=0;orthogonalLoop=1;jettySize=auto;html=1;entryX=0.5;entryY=0;entryDx=0;entryDy=0;" edge="1" parent="1" source="e3i8lb2qf0uO69dVtqz0-26" target="e3i8lb2qf0uO69dVtqz0-27">
          <mxGeometry relative="1" as="geometry" />
        </mxCell>
        <mxCell id="e3i8lb2qf0uO69dVtqz0-26" value="Alberts centralized SQL db" style="shape=cylinder3;whiteSpace=wrap;html=1;boundedLbl=1;backgroundOutline=1;size=15;" vertex="1" parent="1">
          <mxGeometry x="792" y="860" width="170" height="90" as="geometry" />
        </mxCell>
        <mxCell id="e3i8lb2qf0uO69dVtqz0-54" style="edgeStyle=orthogonalEdgeStyle;rounded=0;orthogonalLoop=1;jettySize=auto;html=1;entryX=0.5;entryY=0;entryDx=0;entryDy=0;" edge="1" parent="1" source="e3i8lb2qf0uO69dVtqz0-27" target="e3i8lb2qf0uO69dVtqz0-35">
          <mxGeometry relative="1" as="geometry" />
        </mxCell>
        <mxCell id="e3i8lb2qf0uO69dVtqz0-27" value=".NET 7 Web APIs" style="rounded=1;whiteSpace=wrap;html=1;" vertex="1" parent="1">
          <mxGeometry x="782" y="1040" width="190" height="80" as="geometry" />
        </mxCell>
        <mxCell id="e3i8lb2qf0uO69dVtqz0-29" value="" style="line;strokeWidth=1;html=1;rounded=1;fontSize=12;align=center;verticalAlign=middle;strokeColor=#FF0000;endFill=1;endArrow=classic;endSize=10;startSize=10;" vertex="1" parent="1">
          <mxGeometry x="1090" y="2185" width="68" height="10" as="geometry" />
        </mxCell>
        <mxCell id="e3i8lb2qf0uO69dVtqz0-35" value="Outsystems Environment" style="swimlane;whiteSpace=wrap;html=1;" vertex="1" parent="1">
          <mxGeometry x="617" y="1270" width="520" height="310" as="geometry" />
        </mxCell>
        <mxCell id="e3i8lb2qf0uO69dVtqz0-37" value="Server Logic" style="ellipse;whiteSpace=wrap;html=1;" vertex="1" parent="e3i8lb2qf0uO69dVtqz0-35">
          <mxGeometry x="55" y="90" width="90" height="60" as="geometry" />
        </mxCell>
        <mxCell id="e3i8lb2qf0uO69dVtqz0-38" value="UI" style="rounded=1;whiteSpace=wrap;html=1;" vertex="1" parent="e3i8lb2qf0uO69dVtqz0-35">
          <mxGeometry x="60" y="170" width="80" height="30" as="geometry" />
        </mxCell>
        <mxCell id="e3i8lb2qf0uO69dVtqz0-58" value="Server Logic" style="ellipse;whiteSpace=wrap;html=1;" vertex="1" parent="e3i8lb2qf0uO69dVtqz0-35">
          <mxGeometry x="343" y="100" width="90" height="60" as="geometry" />
        </mxCell>
        <mxCell id="e3i8lb2qf0uO69dVtqz0-59" value="UI" style="rounded=1;whiteSpace=wrap;html=1;" vertex="1" parent="e3i8lb2qf0uO69dVtqz0-35">
          <mxGeometry x="348" y="180" width="80" height="30" as="geometry" />
        </mxCell>
        <mxCell id="e3i8lb2qf0uO69dVtqz0-61" value="" style="swimlane;startSize=0;" vertex="1" parent="e3i8lb2qf0uO69dVtqz0-35">
          <mxGeometry x="40" y="25" width="140" height="200" as="geometry" />
        </mxCell>
        <mxCell id="e3i8lb2qf0uO69dVtqz0-36" value="Outsytems Entities" style="whiteSpace=wrap;html=1;" vertex="1" parent="e3i8lb2qf0uO69dVtqz0-61">
          <mxGeometry x="20" y="15" width="100" height="40" as="geometry" />
        </mxCell>
        <mxCell id="e3i8lb2qf0uO69dVtqz0-62" value="" style="swimlane;startSize=0;" vertex="1" parent="e3i8lb2qf0uO69dVtqz0-35">
          <mxGeometry x="320" y="30" width="130" height="200" as="geometry" />
        </mxCell>
        <mxCell id="e3i8lb2qf0uO69dVtqz0-57" value="Outsytems Entities" style="whiteSpace=wrap;html=1;" vertex="1" parent="e3i8lb2qf0uO69dVtqz0-62">
          <mxGeometry x="23" y="20" width="100" height="40" as="geometry" />
        </mxCell>
        <mxCell id="e3i8lb2qf0uO69dVtqz0-63" value="Albert" style="text;html=1;align=center;verticalAlign=middle;resizable=0;points=[];autosize=1;strokeColor=none;fillColor=none;" vertex="1" parent="e3i8lb2qf0uO69dVtqz0-35">
          <mxGeometry x="363" y="240" width="50" height="30" as="geometry" />
        </mxCell>
        <mxCell id="e3i8lb2qf0uO69dVtqz0-64" value="Public website" style="text;html=1;strokeColor=none;fillColor=none;align=center;verticalAlign=middle;whiteSpace=wrap;rounded=0;" vertex="1" parent="e3i8lb2qf0uO69dVtqz0-35">
          <mxGeometry x="70" y="240" width="60" height="30" as="geometry" />
        </mxCell>
        <mxCell id="e3i8lb2qf0uO69dVtqz0-65" style="edgeStyle=orthogonalEdgeStyle;rounded=0;orthogonalLoop=1;jettySize=auto;html=1;" edge="1" parent="1" source="e3i8lb2qf0uO69dVtqz0-44" target="e3i8lb2qf0uO69dVtqz0-62">
          <mxGeometry relative="1" as="geometry" />
        </mxCell>
        <mxCell id="e3i8lb2qf0uO69dVtqz0-44" value="Custom Albert Logic wrapped as Outystems extension" style="rhombus;whiteSpace=wrap;html=1;" vertex="1" parent="1">
          <mxGeometry x="1137" y="1040" width="380" height="180" as="geometry" />
        </mxCell>
        <mxCell id="e3i8lb2qf0uO69dVtqz0-45" value="re-usable VB.NET/C# Logic" style="text;html=1;strokeColor=none;fillColor=none;align=center;verticalAlign=middle;whiteSpace=wrap;rounded=0;" vertex="1" parent="1">
          <mxGeometry x="1260" y="1150" width="100" height="30" as="geometry" />
        </mxCell>
      </root>
    </mxGraphModel>
  </diagram>
</mxfile>
